<?xml version="1.0" encoding="UTF-8" standalone="no"?>
<!-- Created with Inkscape (http://www.inkscape.org/) -->

<svg
   xmlns:dc="http://purl.org/dc/elements/1.1/"
   xmlns:cc="http://creativecommons.org/ns#"
   xmlns:rdf="http://www.w3.org/1999/02/22-rdf-syntax-ns#"
   xmlns:svg="http://www.w3.org/2000/svg"
   xmlns="http://www.w3.org/2000/svg"
   xmlns:sodipodi="http://sodipodi.sourceforge.net/DTD/sodipodi-0.dtd"
   xmlns:inkscape="http://www.inkscape.org/namespaces/inkscape"
   width="38"
   height="38"
   viewBox="0 0 38.000004 38.000004"
   id="svg2"
   version="1.1"
   inkscape:version="0.91 r13725"
   sodipodi:docname="New BUMP (2016) logoVxx_SiteIcon.svg"
   inkscape:export-filename="/Users/kencarroll/Documents/New BUMP (2016) logoVxx_siteLogo.png"
   inkscape:export-xdpi="91.559998"
   inkscape:export-ydpi="91.559998">
  <defs
     id="defs4">
    <inkscape:path-effect
       effect="powerstroke"
       id="path-effect4296"
       is_visible="true"
       offset_points="0,0.5"
       sort_points="true"
       interpolator_type="Linear"
       interpolator_beta="0.2"
       start_linecap_type="zerowidth"
       linejoin_type="round"
       miter_limit="4"
       end_linecap_type="zerowidth"
       cusp_linecap_type="round" />
    <inkscape:path-effect
       effect="spiro"
       id="path-effect4294"
       is_visible="true" />
    <inkscape:path-effect
       effect="powerstroke"
       id="path-effect4289"
       is_visible="true"
       offset_points="0,0.5"
       sort_points="true"
       interpolator_type="Linear"
       interpolator_beta="0.2"
       start_linecap_type="zerowidth"
       linejoin_type="round"
       miter_limit="4"
       end_linecap_type="zerowidth"
       cusp_linecap_type="round" />
    <inkscape:path-effect
       effect="spiro"
       id="path-effect4287"
       is_visible="true" />
    <inkscape:path-effect
       effect="powerstroke"
       id="path-effect3384"
       is_visible="true"
       offset_points="0,0.5"
       sort_points="true"
       interpolator_type="Linear"
       interpolator_beta="0.2"
       start_linecap_type="zerowidth"
       linejoin_type="round"
       miter_limit="4"
       end_linecap_type="zerowidth"
       cusp_linecap_type="round" />
    <inkscape:path-effect
       effect="spiro"
       id="path-effect3382"
       is_visible="true" />
    <inkscape:path-effect
       effect="powerstroke"
       id="path-effect3378"
       is_visible="true"
       offset_points="0,0.5"
       sort_points="true"
       interpolator_type="Linear"
       interpolator_beta="0.2"
       start_linecap_type="zerowidth"
       linejoin_type="round"
       miter_limit="4"
       end_linecap_type="zerowidth"
       cusp_linecap_type="round" />
    <inkscape:path-effect
       effect="spiro"
       id="path-effect3376"
       is_visible="true" />
    <inkscape:path-effect
       effect="powerstroke"
       id="path-effect3546"
       is_visible="true"
       offset_points="0,0.5"
       sort_points="true"
       interpolator_type="Linear"
       interpolator_beta="0.2"
       start_linecap_type="zerowidth"
       linejoin_type="round"
       miter_limit="4"
       end_linecap_type="zerowidth"
       cusp_linecap_type="round" />
    <inkscape:path-effect
       effect="spiro"
       id="path-effect3544"
       is_visible="true" />
  </defs>
  <sodipodi:namedview
     id="base"
     pagecolor="#ffffff"
     bordercolor="#666666"
     borderopacity="1.0"
     inkscape:pageopacity="0.0"
     inkscape:pageshadow="2"
     inkscape:zoom="1.5"
     inkscape:cx="424.78382"
     inkscape:cy="220.30492"
     inkscape:document-units="px"
     inkscape:current-layer="layer1"
     showgrid="true"
     inkscape:window-width="1920"
     inkscape:window-height="1095"
     inkscape:window-x="44"
     inkscape:window-y="12"
     inkscape:window-maximized="0"
     inkscape:object-nodes="true"
     inkscape:snap-nodes="false"
     inkscape:snap-others="false"
     fit-margin-top="0"
     fit-margin-left="0"
     fit-margin-right="0"
     fit-margin-bottom="0"
     units="px">
    <inkscape:grid
       type="xygrid"
       id="grid3348"
       originx="-1446.4504"
       originy="2050.8863" />
  </sodipodi:namedview>
  <metadata
     id="metadata7">
    <rdf:RDF>
      <cc:Work
         rdf:about="">
        <dc:format>image/svg+xml</dc:format>
        <dc:type
           rdf:resource="http://purl.org/dc/dcmitype/StillImage" />
        <dc:title></dc:title>
      </cc:Work>
    </rdf:RDF>
  </metadata>
  <g
     inkscape:label="Layer 1"
     inkscape:groupmode="layer"
     id="layer1"
     transform="translate(-1446.4505,-3065.2484)">
    <flowRoot
       xml:space="preserve"
       id="flowRoot4136"
       style="font-style:normal;font-weight:normal;font-size:15px;line-height:125%;font-family:Sans;letter-spacing:0px;word-spacing:0px;fill:#000000;fill-opacity:1;stroke:none;stroke-width:1px;stroke-linecap:butt;stroke-linejoin:miter;stroke-opacity:1"><flowRegion
         id="flowRegion4138"><rect
           id="rect4140"
           width="520"
           height="40"
           x="1880"
           y="1492.3622" /></flowRegion><flowPara
         id="flowPara4142" /></flowRoot>    <flowRoot
       xml:space="preserve"
       id="flowRoot4314"
       style="font-style:normal;font-weight:normal;font-size:15px;line-height:125%;font-family:Sans;letter-spacing:0px;word-spacing:0px;fill:#000000;fill-opacity:1;stroke:none;stroke-width:1px;stroke-linecap:butt;stroke-linejoin:miter;stroke-opacity:1"><flowRegion
         id="flowRegion4316"><rect
           id="rect4318"
           width="400"
           height="40"
           x="2000"
           y="852.36218" /></flowRegion><flowPara
         id="flowPara4320" /></flowRoot>    <flowRoot
       xml:space="preserve"
       id="flowRoot4270"
       style="font-style:normal;font-weight:normal;font-size:15px;line-height:125%;font-family:Sans;letter-spacing:0px;word-spacing:0px;fill:#000000;fill-opacity:1;stroke:none;stroke-width:1px;stroke-linecap:butt;stroke-linejoin:miter;stroke-opacity:1"><flowRegion
         id="flowRegion4272"><rect
           id="rect4274"
           width="483.20801"
           height="1355.239"
           x="476.79199"
           y="-662.87683" /></flowRegion><flowPara
         id="flowPara4276" /></flowRoot>    <flowRoot
       xml:space="preserve"
       id="flowRoot4273"
       style="font-style:normal;font-weight:normal;font-size:15px;line-height:125%;font-family:Sans;letter-spacing:0px;word-spacing:0px;fill:#000000;fill-opacity:1;stroke:none;stroke-width:1px;stroke-linecap:butt;stroke-linejoin:miter;stroke-opacity:1"><flowRegion
         id="flowRegion4275"><rect
           id="rect4277"
           width="480"
           height="20"
           x="-120"
           y="3092.3623" /></flowRegion><flowPara
         id="flowPara4279" /></flowRoot>    <flowRoot
       xml:space="preserve"
       id="flowRoot4338"
       style="font-style:normal;font-weight:normal;font-size:15px;line-height:125%;font-family:Sans;letter-spacing:0px;word-spacing:0px;fill:#000000;fill-opacity:1;stroke:none;stroke-width:1px;stroke-linecap:butt;stroke-linejoin:miter;stroke-opacity:1"><flowRegion
         id="flowRegion4340"><rect
           id="rect4342"
           width="0"
           height="100"
           x="-1820"
           y="2952.3623" /></flowRegion><flowPara
         id="flowPara4344" /></flowRoot>    <path
       style="opacity:0.66300001;fill:#ffffff;fill-opacity:1;stroke:#002408;stroke-width:0.15960731;stroke-miterlimit:4;stroke-dasharray:none;stroke-opacity:1"
       d="m 1465.8771,3066.6184 a 17.854429,17.701018 0 0 0 -4.9082,0.6482 c -2.054,0.9 -3.7837,2.6564 -5.0789,4.529 -1.8318,2.6487 -2.001,4.3063 -3.3363,9.1357 -0.8602,3.3442 -1.6984,7.6335 -2.6426,11.5667 a 17.854429,17.701018 0 0 0 15.537,9.5196 l 0.2534,0 a 17.854429,17.701018 0 0 0 15.7774,-9.3953 c -2.1308,-7.2181 -4.1147,-15.9285 -6.5483,-20.6756 -1.3565,-2.6215 -2.8557,-3.8305 -4.3409,-4.6415 a 17.854429,17.701018 0 0 0 -4.7126,-0.689 z"
       id="path3356-5-2-53-6-7-8-5-6-2"
       inkscape:connector-curvature="0" />
    <path
       style="color:#000000;clip-rule:nonzero;display:inline;overflow:visible;visibility:visible;opacity:1;isolation:auto;mix-blend-mode:normal;color-interpolation:sRGB;color-interpolation-filters:linearRGB;solid-color:#000000;solid-opacity:1;fill:none;fill-opacity:1;fill-rule:nonzero;stroke:#002408;stroke-width:0.82682461;stroke-linecap:butt;stroke-linejoin:miter;stroke-miterlimit:4;stroke-dasharray:none;stroke-dashoffset:0;stroke-opacity:1;color-rendering:auto;image-rendering:auto;shape-rendering:auto;text-rendering:auto;enable-background:accumulate"
       id="path3577-0-2-9"
       sodipodi:type="arc"
       sodipodi:cx="1465.9425"
       sodipodi:cy="3086.7056"
       sodipodi:rx="17.745157"
       sodipodi:ry="15.462641"
       sodipodi:start="1.5863559"
       sodipodi:end="1.5721682"
       sodipodi:open="true"
       d="m 1465.6664,3102.1663 a 17.745157,15.462641 0 0 1 -17.4678,-15.6465 17.745157,15.462641 0 0 1 17.8941,-15.2763 17.745157,15.462641 0 0 1 17.5947,15.5381 17.745157,15.462641 0 0 1 -17.7692,15.3866" />
    <path
       style="opacity:1;fill:#008000;fill-opacity:1;stroke:#000000;stroke-width:0.16096604;stroke-miterlimit:4;stroke-dasharray:none;stroke-opacity:1"
       d="m 1467.0205,3066.6588 -1.9729,13.7841 c 0.77,-1.2571 1.6329,-2.2327 2.5885,-2.9274 0.9556,-0.6946 2.0574,-1.042 3.3052,-1.042 0.929,0 1.7521,0.2482 2.4688,0.7443 0.7435,0.463 1.3539,1.1246 1.8318,1.9846 0.5045,0.8271 0.8894,1.8194 1.1548,2.9771 0.2656,1.1578 0.3982,2.3981 0.3982,3.7212 0,2.1171 -0.2522,4.1348 -0.7565,6.0534 -0.5044,1.9185 -1.2611,3.6054 -2.2697,5.0608 -0.9825,1.4555 -2.2167,2.6132 -3.7034,3.4732 -1.4868,0.86 -3.1991,1.2901 -5.137,1.2901 -0.6902,0 -1.4335,-0.066 -2.23,-0.1986 -0.2315,-0.029 -0.464,-0.065 -0.6978,-0.1078 a 18.203932,17.658008 0 0 0 3.6994,0.4601 l 0.2584,0 a 18.203932,17.658008 0 0 0 16.0862,-9.3725 c -2.1727,-7.2003 -4.1952,-15.8899 -6.6765,-20.6253 -1.3832,-2.6153 -2.9116,-3.8212 -4.426,-4.6303 a 18.203932,17.658008 0 0 0 -3.9215,-0.6475 z m -5.02,34.8133 a 18.203932,17.658008 0 0 1 -0.2115,-0.039 c 0.071,0.014 0.1403,0.026 0.2115,0.039 z m -1.3067,-34.0033 c -1.9019,0.9431 -3.512,2.5788 -4.739,4.3148 -1.8679,2.6426 -2.0405,4.2959 -3.4017,9.1137 -0.8772,3.3359 -1.7317,7.6147 -2.6944,11.5385 a 18.203932,17.658008 0 0 0 6.3388,6.7009 l 4.4963,-31.6679 z m 8.0573,15.058 c -0.4778,0 -0.9424,0.1489 -1.3938,0.4466 -0.4247,0.2645 -0.8362,0.6283 -1.2345,1.0915 -0.3982,0.4631 -0.7697,0.9925 -1.1148,1.5878 -0.3452,0.5953 -0.6636,1.2073 -0.9558,1.8358 l -1.115,7.9884 c 0.2656,0.1653 0.5708,0.2975 0.916,0.3968 0.3715,0.1 0.783,0.1488 1.2343,0.1488 0.9293,0 1.7388,-0.2811 2.429,-0.8434 0.6902,-0.5954 1.2613,-1.3396 1.7124,-2.2327 0.4513,-0.9262 0.7833,-1.9681 0.9955,-3.1259 0.2391,-1.1577 0.3585,-2.332 0.3585,-3.5229 0,-1.1575 -0.1725,-2.0672 -0.5176,-2.7288 -0.3188,-0.6946 -0.7567,-1.042 -1.3142,-1.042 z"
       id="path3356-5-2-53-6-7-8-5-6-8"
       inkscape:connector-curvature="0" />
    <path
       style="opacity:0.9729996;fill:#ffffff;fill-opacity:1;stroke:none;stroke-width:10.94299984;stroke-miterlimit:4;stroke-dasharray:none;stroke-opacity:1"
       d="m 1459.8553,3073.9499 c 0,-0.2135 0.5257,-3.8122 0.575,-3.935 0.061,-0.1518 0.1913,-0.1941 1.3203,-0.427 1.2485,-0.2576 2.2229,-0.3529 3.6063,-0.3529 l 1.2231,0 -0.033,0.1903 c -0.052,0.3189 -0.5472,3.747 -0.5472,3.8022 0,0.027 -0.2934,0.051 -0.6522,0.051 -1.5898,0 -3.5506,0.2696 -5.3349,0.7336 -0.1286,0.034 -0.1579,0.022 -0.1579,-0.062 z"
       id="path4442"
       inkscape:connector-curvature="0" />
    <path
       style="opacity:0.9729996;fill:#ffffff;fill-opacity:1;stroke:none;stroke-width:10.94299984;stroke-miterlimit:4;stroke-dasharray:none;stroke-opacity:1"
       d="m 1465.4136,3071.6623 c 0.051,-0.021 0.2489,-0.022 0.4423,0 l 0.3517,0.036 -0.4426,0 c -0.2751,0 -0.4081,-0.014 -0.3514,-0.036 z"
       id="path3408"
       inkscape:connector-curvature="0" />
    <path
       style="opacity:0.9729996;fill:#ffffff;fill-opacity:1;stroke:none;stroke-width:10.94299984;stroke-miterlimit:4;stroke-dasharray:none;stroke-opacity:1"
       d="m 1464.6922,3070.8541 c 0.042,-0.014 0.1121,-0.014 0.1549,0 0.043,0.014 0,0.021 -0.078,0.021 -0.085,0 -0.1211,-0.014 -0.076,-0.021 z"
       id="path3412"
       inkscape:connector-curvature="0" />
    <path
       style="opacity:0.9729996;fill:#ffffff;fill-opacity:1;stroke:none;stroke-width:10.94299984;stroke-miterlimit:4;stroke-dasharray:none;stroke-opacity:1"
       d=""
       id="path3422"
       inkscape:connector-curvature="0"
       transform="translate(1440.139,907.60736)" />
    <path
       style="opacity:0.9729996;fill:#ffffff;fill-opacity:1;stroke:none;stroke-width:10.94299984;stroke-miterlimit:4;stroke-dasharray:none;stroke-opacity:1"
       d=""
       id="path3438"
       inkscape:connector-curvature="0"
       transform="translate(1440.139,907.60736)" />
    <path
       style="opacity:0.9729996;fill:#ffffff;fill-opacity:1;stroke:none;stroke-width:10.94299984;stroke-miterlimit:4;stroke-dasharray:none;stroke-opacity:1"
       d=""
       id="path3440"
       inkscape:connector-curvature="0"
       transform="translate(1440.139,907.60736)" />
    <path
       style="opacity:0.9729996;fill:#ffffff;fill-opacity:1;stroke:none;stroke-width:10.94299984;stroke-miterlimit:4;stroke-dasharray:none;stroke-opacity:1"
       d=""
       id="path3442"
       inkscape:connector-curvature="0"
       transform="translate(1440.139,907.60736)" />
    <path
       style="opacity:0.9729996;fill:#ffffff;fill-opacity:1;stroke:none;stroke-width:10.94299984;stroke-miterlimit:4;stroke-dasharray:none;stroke-opacity:1"
       d=""
       id="path3454"
       inkscape:connector-curvature="0"
       transform="translate(1440.139,907.60736)" />
    <path
       style="opacity:0.9729996;fill:#ffffff;fill-opacity:1;stroke:none;stroke-width:10.94299984;stroke-miterlimit:4;stroke-dasharray:none;stroke-opacity:1"
       d="m 1466.1331,3071.6414 c 0.057,-0.017 0.093,-0.017 0.093,0 0,0.014 -0.03,0.015 -0.065,0.014 -0.057,0 -0.06,0 -0.027,-0.014 z"
       id="path3456"
       inkscape:connector-curvature="0" />
    <path
       style="opacity:0.9729996;fill:#ffffff;fill-opacity:1;stroke:none;stroke-width:10.94299984;stroke-miterlimit:4;stroke-dasharray:none;stroke-opacity:1"
       d="m 1466.1445,3071.6627 c 0.016,0 0.028,0 0.038,0 0.016,0 0,0.014 -0.02,0.014 -0.022,0 -0.03,0 -0.019,-0.014 z"
       id="path3458"
       inkscape:connector-curvature="0" />
    <path
       style="opacity:0.9729996;fill:#ffffff;fill-opacity:1;stroke:none;stroke-width:10.94299984;stroke-miterlimit:4;stroke-dasharray:none;stroke-opacity:1"
       d=""
       id="path3460"
       inkscape:connector-curvature="0"
       transform="translate(1440.139,907.60736)" />
  </g>
</svg>
